<svg width="170" height="38" viewBox="0 0 170 38" fill="none" xmlns="http://www.w3.org/2000/svg">
<g filter="url(#filter0_dd_1_100)">
<rect x="3.1" y="2.1" width="31.8" height="31.8" rx="7.9" fill="white"/>
<rect x="3.1" y="2.1" width="31.8" height="31.8" rx="7.9" fill="url(#paint0_linear_1_100)"/>
<rect x="3.1" y="2.1" width="31.8" height="31.8" rx="7.9" stroke="#D0D5DD" stroke-width="0.2"/>
<path d="M18.3546 13.1828C22.7105 11.4504 27.4742 12.8185 29.6373 14.9133C30.106 15.3671 30.5041 15.8275 30.845 16.2852C31.0394 15.2107 31.0552 14.1405 30.8681 13.1055C30.1847 9.32649 26.6195 7.18561 23.4233 8.29149C20.2415 9.3924 19.0005 11.5321 19.0005 11.5321C19.0005 11.5321 17.7595 9.3924 14.5777 8.29149C11.3812 7.18561 7.81603 9.32672 7.1328 13.1055C6.62842 15.8944 7.58356 18.9392 9.61033 21.6298C10.0372 21.7732 10.4847 21.8809 10.9586 21.9431C13.7978 22.3163 14.8184 21.557 16.0178 21.0486C16.8142 20.7113 17.4134 21.0942 17.3843 21.3626C17.3392 21.7786 15.7693 22.4895 16.106 22.6388C17.4351 23.2285 19.0718 23.2334 20.3053 22.18C21.838 20.8712 22.4114 21.7659 22.4114 21.7659C22.4114 21.7659 21.6502 23.7076 19.3581 24.6717C17.4457 25.4761 15.4419 25.6743 13.6107 25.4683C15.19 26.5846 17.0035 27.5204 19.0005 28.1883C24.7099 26.2784 28.9276 22.1871 30.4145 17.9096C29.4072 16.9157 28.1716 16.2996 26.6988 16.0763C23.8674 15.6471 22.8322 16.3863 21.6228 16.8708C20.8198 17.1926 20.2285 16.7978 20.263 16.5299C20.3161 16.1148 21.8999 15.4351 21.5661 15.279C20.249 14.6633 18.6125 14.626 17.3585 15.6549C15.8003 16.9332 15.2446 16.0274 15.2446 16.0274C15.2446 16.0274 16.0438 14.1015 18.3546 13.1828ZM17.2709 18.5052H18.3709V17.4052H19.6296V18.5052H20.7296V19.7639H19.6296V20.8639H18.3709V19.7639H17.2709V18.5052Z" fill="url(#paint1_linear_1_100)"/>
<path d="M17.2709 18.5052H18.3709V17.4052H19.6296V18.5052H20.7295V19.7639H19.6378C21.2597 20.5834 24.2383 21.8027 27.8177 22.3451C28.9956 20.9517 29.8813 19.4428 30.4143 17.9096C29.4069 16.9157 28.1713 16.2996 26.6986 16.0763C23.8672 15.647 22.8319 16.3863 21.6226 16.8708C20.8196 17.1926 20.2282 16.7978 20.2627 16.5299C20.3159 16.1148 21.8997 15.4351 21.5659 15.279C20.2488 14.6633 18.6123 14.626 17.3583 15.6548C15.8 16.9332 15.2443 16.0274 15.2443 16.0274C15.2443 16.0274 16.0438 14.1013 18.3543 13.1823C22.7102 11.4499 27.4739 12.818 29.637 14.9128C30.1057 15.3666 30.5038 15.8271 30.8447 16.2847C31.0392 15.2102 31.055 14.14 30.8679 13.105C30.1844 9.326 26.6192 7.18512 23.423 8.291C20.2412 9.39191 19.0002 11.5316 19.0002 11.5316C19.0002 11.5316 17.7592 9.39191 14.5774 8.291C12.7519 7.65927 10.8067 8.0883 9.34619 9.27521C10.0323 10.7442 10.836 12.1168 13.1254 14.8773C14.9868 17.1222 17.2709 18.5052 17.2709 18.5052Z" fill="url(#paint2_linear_1_100)"/>
<path opacity="0.31" d="M27.277 9.64942C24.2712 8.13932 21.169 10.489 20.1851 11.7298C21.882 11.3724 23.3668 11.189 25.2457 11.5838C28.0252 12.1678 29.0654 13.1714 30.3064 14.6541C30.0871 11.9068 28.3519 10.1895 27.277 9.64942Z" fill="url(#paint3_linear_1_100)"/>
</g>
<path d="M45.858 27V24.25H46.804C47.508 24.25 48.0653 24.052 48.476 23.656C48.9013 23.2453 49.114 22.7027 49.114 22.028V10.61H52.128V21.918C52.128 22.93 51.908 23.8173 51.468 24.58C51.0427 25.3427 50.4267 25.9367 49.62 26.362C48.828 26.7873 47.8893 27 46.804 27H45.858ZM60.6547 27.264C59.4227 27.264 58.3447 26.9853 57.4207 26.428C56.4967 25.8707 55.7781 25.1153 55.2647 24.162C54.7514 23.2087 54.4947 22.1527 54.4947 20.994C54.4947 19.7913 54.7514 18.728 55.2647 17.804C55.7927 16.8653 56.5041 16.1247 57.3987 15.582C58.3081 15.0393 59.3201 14.768 60.4347 14.768C61.3734 14.768 62.1947 14.922 62.8987 15.23C63.6174 15.538 64.2261 15.9633 64.7247 16.506C65.2234 17.0487 65.6047 17.672 65.8687 18.376C66.1327 19.0653 66.2647 19.8133 66.2647 20.62C66.2647 20.8253 66.2501 21.038 66.2207 21.258C66.2061 21.478 66.1694 21.6687 66.1107 21.83H56.8707V19.63H64.4827L63.1187 20.664C63.2507 19.9893 63.2141 19.388 63.0087 18.86C62.8181 18.332 62.4954 17.914 62.0407 17.606C61.6007 17.298 61.0654 17.144 60.4347 17.144C59.8334 17.144 59.2981 17.298 58.8287 17.606C58.3594 17.8993 58.0001 18.3393 57.7507 18.926C57.5161 19.498 57.4281 20.1947 57.4867 21.016C57.4281 21.7493 57.5234 22.402 57.7727 22.974C58.0367 23.5313 58.4181 23.964 58.9167 24.272C59.4301 24.58 60.0167 24.734 60.6767 24.734C61.3367 24.734 61.8941 24.5947 62.3487 24.316C62.8181 24.0373 63.1847 23.6633 63.4487 23.194L65.7807 24.338C65.5461 24.91 65.1794 25.416 64.6807 25.856C64.1821 26.296 63.5881 26.6407 62.8987 26.89C62.2241 27.1393 61.4761 27.264 60.6547 27.264ZM74.1254 27.264C72.8934 27.264 71.8154 26.9853 70.8914 26.428C69.9674 25.8707 69.2488 25.1153 68.7354 24.162C68.2221 23.2087 67.9654 22.1527 67.9654 20.994C67.9654 19.7913 68.2221 18.728 68.7354 17.804C69.2634 16.8653 69.9748 16.1247 70.8694 15.582C71.7788 15.0393 72.7908 14.768 73.9054 14.768C74.8441 14.768 75.6654 14.922 76.3694 15.23C77.0881 15.538 77.6968 15.9633 78.1954 16.506C78.6941 17.0487 79.0754 17.672 79.3394 18.376C79.6034 19.0653 79.7354 19.8133 79.7354 20.62C79.7354 20.8253 79.7208 21.038 79.6914 21.258C79.6768 21.478 79.6401 21.6687 79.5814 21.83H70.3414V19.63H77.9534L76.5894 20.664C76.7214 19.9893 76.6848 19.388 76.4794 18.86C76.2888 18.332 75.9661 17.914 75.5114 17.606C75.0714 17.298 74.5361 17.144 73.9054 17.144C73.3041 17.144 72.7688 17.298 72.2994 17.606C71.8301 17.8993 71.4708 18.3393 71.2214 18.926C70.9868 19.498 70.8988 20.1947 70.9574 21.016C70.8988 21.7493 70.9941 22.402 71.2434 22.974C71.5074 23.5313 71.8888 23.964 72.3874 24.272C72.9008 24.58 73.4874 24.734 74.1474 24.734C74.8074 24.734 75.3648 24.5947 75.8194 24.316C76.2888 24.0373 76.6554 23.6633 76.9194 23.194L79.2514 24.338C79.0168 24.91 78.6501 25.416 78.1514 25.856C77.6528 26.296 77.0588 26.6407 76.3694 26.89C75.6948 27.1393 74.9468 27.264 74.1254 27.264ZM85.3133 27L80.6053 15.032H83.7513L87.1613 24.448H85.9953L89.4273 15.032H92.5733L87.8653 27H85.3133ZM99.6274 27.264C98.3954 27.264 97.3174 26.9853 96.3934 26.428C95.4694 25.8707 94.7507 25.1153 94.2374 24.162C93.724 23.2087 93.4674 22.1527 93.4674 20.994C93.4674 19.7913 93.724 18.728 94.2374 17.804C94.7654 16.8653 95.4767 16.1247 96.3714 15.582C97.2807 15.0393 98.2927 14.768 99.4074 14.768C100.346 14.768 101.167 14.922 101.871 15.23C102.59 15.538 103.199 15.9633 103.697 16.506C104.196 17.0487 104.577 17.672 104.841 18.376C105.105 19.0653 105.237 19.8133 105.237 20.62C105.237 20.8253 105.223 21.038 105.193 21.258C105.179 21.478 105.142 21.6687 105.083 21.83H95.8434V19.63H103.455L102.091 20.664C102.223 19.9893 102.187 19.388 101.981 18.86C101.791 18.332 101.468 17.914 101.013 17.606C100.573 17.298 100.038 17.144 99.4074 17.144C98.806 17.144 98.2707 17.298 97.8014 17.606C97.332 17.8993 96.9727 18.3393 96.7234 18.926C96.4887 19.498 96.4007 20.1947 96.4594 21.016C96.4007 21.7493 96.496 22.402 96.7454 22.974C97.0094 23.5313 97.3907 23.964 97.8894 24.272C98.4027 24.58 98.9894 24.734 99.6494 24.734C100.309 24.734 100.867 24.5947 101.321 24.316C101.791 24.0373 102.157 23.6633 102.421 23.194L104.753 24.338C104.519 24.91 104.152 25.416 103.653 25.856C103.155 26.296 102.561 26.6407 101.871 26.89C101.197 27.1393 100.449 27.264 99.6274 27.264ZM107.422 27V15.032H110.128V17.386L109.908 16.968C110.187 16.2493 110.641 15.7067 111.272 15.34C111.917 14.9587 112.665 14.768 113.516 14.768C114.396 14.768 115.173 14.9587 115.848 15.34C116.537 15.7213 117.073 16.2567 117.454 16.946C117.835 17.6207 118.026 18.4053 118.026 19.3V27H115.144V19.982C115.144 19.454 115.041 18.9993 114.836 18.618C114.631 18.2367 114.345 17.9433 113.978 17.738C113.626 17.518 113.208 17.408 112.724 17.408C112.255 17.408 111.837 17.518 111.47 17.738C111.103 17.9433 110.817 18.2367 110.612 18.618C110.407 18.9993 110.304 19.454 110.304 19.982V27H107.422ZM128.405 27.264C127.232 27.264 126.146 27.0513 125.149 26.626C124.166 26.2007 123.301 25.6067 122.553 24.844C121.82 24.0813 121.248 23.1867 120.837 22.16C120.426 21.1333 120.221 20.0113 120.221 18.794C120.221 17.5767 120.419 16.4547 120.815 15.428C121.226 14.3867 121.798 13.492 122.531 12.744C123.279 11.9813 124.152 11.3947 125.149 10.984C126.146 10.5587 127.232 10.346 128.405 10.346C129.578 10.346 130.627 10.544 131.551 10.94C132.49 11.336 133.282 11.864 133.927 12.524C134.572 13.1693 135.034 13.8807 135.313 14.658L132.629 15.912C132.321 15.0907 131.8 14.416 131.067 13.888C130.334 13.3453 129.446 13.074 128.405 13.074C127.378 13.074 126.469 13.316 125.677 13.8C124.9 14.284 124.291 14.9513 123.851 15.802C123.426 16.6527 123.213 17.65 123.213 18.794C123.213 19.938 123.426 20.9427 123.851 21.808C124.291 22.6587 124.9 23.326 125.677 23.81C126.469 24.294 127.378 24.536 128.405 24.536C129.446 24.536 130.334 24.272 131.067 23.744C131.8 23.2013 132.321 22.5193 132.629 21.698L135.313 22.952C135.034 23.7293 134.572 24.448 133.927 25.108C133.282 25.7533 132.49 26.274 131.551 26.67C130.627 27.066 129.578 27.264 128.405 27.264ZM140.915 27.264C140.079 27.264 139.353 27.1247 138.737 26.846C138.121 26.5673 137.645 26.1713 137.307 25.658C136.97 25.13 136.801 24.5213 136.801 23.832C136.801 23.172 136.948 22.5853 137.241 22.072C137.535 21.544 137.989 21.104 138.605 20.752C139.221 20.4 139.999 20.1507 140.937 20.004L144.853 19.366V21.566L141.487 22.138C140.915 22.2407 140.49 22.424 140.211 22.688C139.933 22.952 139.793 23.2967 139.793 23.722C139.793 24.1327 139.947 24.4627 140.255 24.712C140.578 24.9467 140.974 25.064 141.443 25.064C142.045 25.064 142.573 24.9393 143.027 24.69C143.497 24.426 143.856 24.0667 144.105 23.612C144.369 23.1573 144.501 22.6587 144.501 22.116V19.036C144.501 18.5227 144.296 18.0973 143.885 17.76C143.489 17.408 142.961 17.232 142.301 17.232C141.685 17.232 141.135 17.4007 140.651 17.738C140.182 18.0607 139.837 18.4933 139.617 19.036L137.263 17.892C137.498 17.2613 137.865 16.7187 138.363 16.264C138.877 15.7947 139.478 15.428 140.167 15.164C140.857 14.9 141.605 14.768 142.411 14.768C143.394 14.768 144.259 14.9513 145.007 15.318C145.755 15.67 146.335 16.1687 146.745 16.814C147.171 17.4447 147.383 18.1853 147.383 19.036V27H144.655V24.954L145.271 24.91C144.963 25.4233 144.597 25.856 144.171 26.208C143.746 26.5453 143.262 26.8093 142.719 27C142.177 27.176 141.575 27.264 140.915 27.264ZM150.047 27V15.032H152.753V17.694L152.533 17.298C152.812 16.4033 153.244 15.78 153.831 15.428C154.432 15.076 155.151 14.9 155.987 14.9H156.691V17.452H155.657C154.836 17.452 154.176 17.7087 153.677 18.222C153.178 18.7207 152.929 19.4247 152.929 20.334V27H150.047ZM163.952 27.264C162.72 27.264 161.642 26.9853 160.718 26.428C159.794 25.8707 159.075 25.1153 158.562 24.162C158.048 23.2087 157.792 22.1527 157.792 20.994C157.792 19.7913 158.048 18.728 158.562 17.804C159.09 16.8653 159.801 16.1247 160.696 15.582C161.605 15.0393 162.617 14.768 163.732 14.768C164.67 14.768 165.492 14.922 166.196 15.23C166.914 15.538 167.523 15.9633 168.022 16.506C168.52 17.0487 168.902 17.672 169.166 18.376C169.43 19.0653 169.562 19.8133 169.562 20.62C169.562 20.8253 169.547 21.038 169.518 21.258C169.503 21.478 169.466 21.6687 169.408 21.83H160.168V19.63H167.78L166.416 20.664C166.548 19.9893 166.511 19.388 166.306 18.86C166.115 18.332 165.792 17.914 165.338 17.606C164.898 17.298 164.362 17.144 163.732 17.144C163.13 17.144 162.595 17.298 162.126 17.606C161.656 17.8993 161.297 18.3393 161.048 18.926C160.813 19.498 160.725 20.1947 160.784 21.016C160.725 21.7493 160.82 22.402 161.07 22.974C161.334 23.5313 161.715 23.964 162.214 24.272C162.727 24.58 163.314 24.734 163.974 24.734C164.634 24.734 165.191 24.5947 165.646 24.316C166.115 24.0373 166.482 23.6633 166.746 23.194L169.078 24.338C168.843 24.91 168.476 25.416 167.978 25.856C167.479 26.296 166.885 26.6407 166.196 26.89C165.521 27.1393 164.773 27.264 163.952 27.264Z" fill="white"/>
<defs>
<filter id="filter0_dd_1_100" x="0" y="0" width="38" height="38" filterUnits="userSpaceOnUse" color-interpolation-filters="sRGB">
<feFlood flood-opacity="0" result="BackgroundImageFix"/>
<feColorMatrix in="SourceAlpha" type="matrix" values="0 0 0 0 0 0 0 0 0 0 0 0 0 0 0 0 0 0 127 0" result="hardAlpha"/>
<feOffset dy="1"/>
<feGaussianBlur stdDeviation="1"/>
<feColorMatrix type="matrix" values="0 0 0 0 0.0627451 0 0 0 0 0.0941176 0 0 0 0 0.156863 0 0 0 0.06 0"/>
<feBlend mode="normal" in2="BackgroundImageFix" result="effect1_dropShadow_1_100"/>
<feColorMatrix in="SourceAlpha" type="matrix" values="0 0 0 0 0 0 0 0 0 0 0 0 0 0 0 0 0 0 127 0" result="hardAlpha"/>
<feOffset dy="1"/>
<feGaussianBlur stdDeviation="1.5"/>
<feColorMatrix type="matrix" values="0 0 0 0 0.0627451 0 0 0 0 0.0941176 0 0 0 0 0.156863 0 0 0 0.1 0"/>
<feBlend mode="normal" in2="effect1_dropShadow_1_100" result="effect2_dropShadow_1_100"/>
<feBlend mode="normal" in="SourceGraphic" in2="effect2_dropShadow_1_100" result="shape"/>
</filter>
<linearGradient id="paint0_linear_1_100" x1="19" y1="2" x2="19" y2="34" gradientUnits="userSpaceOnUse">
<stop stop-color="white"/>
<stop offset="1" stop-color="#D0D5DD"/>
</linearGradient>
<linearGradient id="paint1_linear_1_100" x1="10.1989" y1="24.2137" x2="27.8347" y2="6.57791" gradientUnits="userSpaceOnUse">
<stop stop-color="#0076C1"/>
<stop offset="0.0737" stop-color="#0B82C6"/>
<stop offset="0.2766" stop-color="#269ED3"/>
<stop offset="0.4546" stop-color="#36AFDA"/>
<stop offset="0.587" stop-color="#3CB5DD"/>
</linearGradient>
<linearGradient id="paint2_linear_1_100" x1="10.1388" y1="24.2537" x2="27.8274" y2="6.56509" gradientUnits="userSpaceOnUse">
<stop stop-color="#00A482"/>
<stop offset="1" stop-color="#79DD83"/>
</linearGradient>
<linearGradient id="paint3_linear_1_100" x1="24.8608" y1="13.5072" x2="28.5288" y2="10.1131" gradientUnits="userSpaceOnUse">
<stop stop-color="#00A482"/>
<stop offset="1" stop-color="#79DD83"/>
</linearGradient>
</defs>
</svg>
